<svg xmlns="http://www.w3.org/2000/svg" width="520.5" height="981" viewBox="0 0 520.5 981">
  <title>Asset 2</title>
  <g id="b027b8a5-d2e8-4cc9-b78b-241e43eb6df7" data-name="Layer 2">
    <g id="ebb173f8-849e-46aa-8657-5e140fbd726d" data-name="Layer 1">
      <g>
        <g>
          <rect x="430" y="0.5" width="34" height="196" style="fill: #f9b546"/>
          <path d="M429.5,0h35V197h-35Zm34,1h-33V196h33Z" style="fill: #a97c50"/>
        </g>
        <g>
          <rect x="430" y="196.5" width="34" height="196" style="fill: #e8a23d"/>
          <path d="M429.5,196h35V393h-35Zm34,1h-33V392h33Z" style="fill: #a97c50"/>
        </g>
        <g>
          <rect x="430" y="392.5" width="34" height="196" style="fill: #f9b546"/>
          <path d="M429.5,392h35V589h-35Zm34,1h-33V588h33Z" style="fill: #a97c50"/>
        </g>
        <g>
          <rect x="430" y="588.5" width="34" height="196" style="fill: #c4812e"/>
          <path d="M429.5,588h35V785h-35Zm34,1h-33V784h33Z" style="fill: #a97c50"/>
        </g>
        <g>
          <rect x="430" y="784.5" width="34" height="196" style="fill: #e8a23d"/>
          <path d="M429.5,784h35V981h-35Zm34,1h-33V980h33Z" style="fill: #a97c50"/>
        </g>
        <g>
          <rect x="396" y="686.5" width="34" height="196" style="fill: #f9b546"/>
          <path d="M395.5,686h35V883h-35Zm34,1h-33V882h33Z" style="fill: #a97c50"/>
        </g>
        <g>
          <rect x="396" y="490.5" width="34" height="196" style="fill: #e8a23d"/>
          <path d="M395.5,490h35V687h-35Zm34,1h-33V686h33Z" style="fill: #a97c50"/>
        </g>
        <g>
          <rect x="396" y="294.5" width="34" height="196" style="fill: #f9b546"/>
          <path d="M395.5,294h35V491h-35Zm34,1h-33V490h33Z" style="fill: #a97c50"/>
        </g>
        <g>
          <rect x="396" y="98.5" width="34" height="196" style="fill: #e8a23d"/>
          <path d="M395.5,98h35V295h-35Zm34,1h-33V294h33Z" style="fill: #a97c50"/>
        </g>
        <g>
          <rect x="362" y="784.5" width="34" height="196" style="fill: #f9b546"/>
          <path d="M361.5,784h35V981h-35Zm34,1h-33V980h33Z" style="fill: #a97c50"/>
        </g>
        <g>
          <rect x="362" y="588.5" width="34" height="196" style="fill: #e8a23d"/>
          <path d="M361.5,588h35V785h-35Zm34,1h-33V784h33Z" style="fill: #a97c50"/>
        </g>
        <g>
          <rect x="362" y="392.5" width="34" height="196" style="fill: #f9b546"/>
          <path d="M361.5,392h35V589h-35Zm34,1h-33V588h33Z" style="fill: #a97c50"/>
        </g>
        <g>
          <rect x="362" y="196.5" width="34" height="196" style="fill: #f9b546"/>
          <path d="M361.5,196h35V393h-35Zm34,1h-33V392h33Z" style="fill: #a97c50"/>
        </g>
        <g>
          <rect x="362" y="0.5" width="34" height="196" style="fill: #e8a23d"/>
          <path d="M361.5,0h35V197h-35Zm34,1h-33V196h33Z" style="fill: #a97c50"/>
        </g>
        <g>
          <rect x="328" y="686.5" width="34" height="196" style="fill: #e8a23d"/>
          <path d="M327.5,686h35V883h-35Zm34,1h-33V882h33Z" style="fill: #a97c50"/>
        </g>
        <g>
          <rect x="328" y="490.5" width="34" height="196" style="fill: #f9b546"/>
          <path d="M327.5,490h35V687h-35Zm34,1h-33V686h33Z" style="fill: #a97c50"/>
        </g>
        <g>
          <rect x="328" y="294.5" width="34" height="196" style="fill: #d89335"/>
          <path d="M327.5,294h35V491h-35Zm34,1h-33V490h33Z" style="fill: #a97c50"/>
        </g>
        <g>
          <rect x="328" y="98.5" width="34" height="196" style="fill: #e8a23d"/>
          <path d="M327.5,98h35V295h-35Zm34,1h-33V294h33Z" style="fill: #a97c50"/>
        </g>
        <g>
          <rect x="294" y="0.5" width="34" height="196" style="fill: #f9b546"/>
          <path d="M293.5,0h35V197h-35Zm34,1h-33V196h33Z" style="fill: #a97c50"/>
        </g>
        <g>
          <rect x="294" y="196.5" width="34" height="196" style="fill: #e8a23d"/>
          <path d="M293.5,196h35V393h-35Zm34,1h-33V392h33Z" style="fill: #a97c50"/>
        </g>
        <g>
          <rect x="294" y="392.5" width="34" height="196" style="fill: #f9b546"/>
          <path d="M293.5,392h35V589h-35Zm34,1h-33V588h33Z" style="fill: #a97c50"/>
        </g>
        <g>
          <rect x="294" y="588.5" width="34" height="196" style="fill: #d89335"/>
          <path d="M293.5,588h35V785h-35Zm34,1h-33V784h33Z" style="fill: #a97c50"/>
        </g>
        <g>
          <rect x="294" y="784.5" width="34" height="196" style="fill: #e8a23d"/>
          <path d="M293.5,784h35V981h-35Zm34,1h-33V980h33Z" style="fill: #a97c50"/>
        </g>
        <g>
          <rect x="260" y="686.5" width="34" height="196" style="fill: #f9b546"/>
          <path d="M259.5,686h35V883h-35Zm34,1h-33V882h33Z" style="fill: #a97c50"/>
        </g>
        <g>
          <rect x="260" y="490.5" width="34" height="196" style="fill: #e8a23d"/>
          <path d="M259.5,490h35V687h-35Zm34,1h-33V686h33Z" style="fill: #a97c50"/>
        </g>
        <g>
          <rect x="260" y="294.5" width="34" height="196" style="fill: #f9b546"/>
          <path d="M259.5,294h35V491h-35Zm34,1h-33V490h33Z" style="fill: #a97c50"/>
        </g>
        <g>
          <rect x="260" y="98.5" width="34" height="196" style="fill: #e8a23d"/>
          <path d="M259.5,98h35V295h-35Zm34,1h-33V294h33Z" style="fill: #a97c50"/>
        </g>
        <g>
          <rect x="226" y="784.5" width="34" height="196" style="fill: #f9b546"/>
          <path d="M225.5,784h35V981h-35Zm34,1h-33V980h33Z" style="fill: #a97c50"/>
        </g>
        <g>
          <rect x="226" y="588.5" width="34" height="196" style="fill: #e8a23d"/>
          <path d="M225.5,588h35V785h-35Zm34,1h-33V784h33Z" style="fill: #a97c50"/>
        </g>
        <g>
          <rect x="226" y="392.5" width="34" height="196" style="fill: #f9b546"/>
          <path d="M225.5,392h35V589h-35Zm34,1h-33V588h33Z" style="fill: #a97c50"/>
        </g>
        <g>
          <rect x="226" y="196.5" width="34" height="196" style="fill: #f9b546"/>
          <path d="M225.5,196h35V393h-35Zm34,1h-33V392h33Z" style="fill: #a97c50"/>
        </g>
        <g>
          <rect x="226" y="0.5" width="34" height="196" style="fill: #e8a23d"/>
          <path d="M225.5,0h35V197h-35Zm34,1h-33V196h33Z" style="fill: #a97c50"/>
        </g>
        <g>
          <rect x="192" y="686.5" width="34" height="196" style="fill: #e8a23d"/>
          <path d="M191.5,686h35V883h-35Zm34,1h-33V882h33Z" style="fill: #a97c50"/>
        </g>
        <g>
          <rect x="192" y="490.5" width="34" height="196" style="fill: #f9b546"/>
          <path d="M191.5,490h35V687h-35Zm34,1h-33V686h33Z" style="fill: #a97c50"/>
        </g>
        <g>
          <rect x="192" y="294.5" width="34" height="196" style="fill: #d89335"/>
          <path d="M191.5,294h35V491h-35Zm34,1h-33V490h33Z" style="fill: #a97c50"/>
        </g>
        <g>
          <rect x="192" y="98.5" width="34" height="196" style="fill: #e8a23d"/>
          <path d="M191.5,98h35V295h-35Zm34,1h-33V294h33Z" style="fill: #a97c50"/>
        </g>
        <g>
          <rect x="56" y="784.5" width="34" height="196" style="fill: #f9b546"/>
          <path d="M55.5,784h35V981h-35Zm34,1h-33V980h33Z" style="fill: #a97c50"/>
        </g>
        <g>
          <rect x="56" y="588.5" width="34" height="196" style="fill: #e8a23d"/>
          <path d="M55.5,588h35V785h-35Zm34,1h-33V784h33Z" style="fill: #a97c50"/>
        </g>
        <g>
          <rect x="56" y="392.5" width="34" height="196" style="fill: #f9b546"/>
          <path d="M55.5,392h35V589h-35Zm34,1h-33V588h33Z" style="fill: #a97c50"/>
        </g>
        <g>
          <rect x="56" y="196.5" width="34" height="196" style="fill: #c4812e"/>
          <path d="M55.5,196h35V393h-35Zm34,1h-33V392h33Z" style="fill: #a97c50"/>
        </g>
        <g>
          <rect x="56" y="0.5" width="34" height="196" style="fill: #e8a23d"/>
          <path d="M55.5,0h35V197h-35Zm34,1h-33V196h33Z" style="fill: #a97c50"/>
        </g>
        <g>
          <rect x="90" y="98.5" width="34" height="196" style="fill: #f9b546"/>
          <path d="M89.5,98h35V295h-35Zm34,1h-33V294h33Z" style="fill: #a97c50"/>
        </g>
        <g>
          <rect x="90" y="294.5" width="34" height="196" style="fill: #e8a23d"/>
          <path d="M89.5,294h35V491h-35Zm34,1h-33V490h33Z" style="fill: #a97c50"/>
        </g>
        <g>
          <rect x="90" y="490.5" width="34" height="196" style="fill: #f9b546"/>
          <path d="M89.5,490h35V687h-35Zm34,1h-33V686h33Z" style="fill: #a97c50"/>
        </g>
        <g>
          <rect x="90" y="686.5" width="34" height="196" style="fill: #e8a23d"/>
          <path d="M89.5,686h35V883h-35Zm34,1h-33V882h33Z" style="fill: #a97c50"/>
        </g>
        <g>
          <rect x="124" y="0.5" width="34" height="196" style="fill: #f9b546"/>
          <path d="M123.5,0h35V197h-35Zm34,1h-33V196h33Z" style="fill: #a97c50"/>
        </g>
        <g>
          <rect x="124" y="196.5" width="34" height="196" style="fill: #e8a23d"/>
          <path d="M123.5,196h35V393h-35Zm34,1h-33V392h33Z" style="fill: #a97c50"/>
        </g>
        <g>
          <rect x="124" y="392.5" width="34" height="196" style="fill: #f9b546"/>
          <path d="M123.5,392h35V589h-35Zm34,1h-33V588h33Z" style="fill: #a97c50"/>
        </g>
        <g>
          <rect x="124" y="588.5" width="34" height="196" style="fill: #f9b546"/>
          <path d="M123.5,588h35V785h-35Zm34,1h-33V784h33Z" style="fill: #a97c50"/>
        </g>
        <g>
          <rect x="124" y="784.5" width="34" height="196" style="fill: #e8a23d"/>
          <path d="M123.5,784h35V981h-35Zm34,1h-33V980h33Z" style="fill: #a97c50"/>
        </g>
        <g>
          <rect x="158" y="98.5" width="34" height="196" style="fill: #e8a23d"/>
          <path d="M157.5,98h35V295h-35Zm34,1h-33V294h33Z" style="fill: #a97c50"/>
        </g>
        <g>
          <rect x="158" y="294.5" width="34" height="196" style="fill: #f9b546"/>
          <path d="M157.5,294h35V491h-35Zm34,1h-33V490h33Z" style="fill: #a97c50"/>
        </g>
        <g>
          <rect x="158" y="490.5" width="34" height="196" style="fill: #d89335"/>
          <path d="M157.5,490h35V687h-35Zm34,1h-33V686h33Z" style="fill: #a97c50"/>
        </g>
        <g>
          <rect x="158" y="686.5" width="34" height="196" style="fill: #e8a23d"/>
          <path d="M157.5,686h35V883h-35Zm34,1h-33V882h33Z" style="fill: #a97c50"/>
        </g>
        <g>
          <rect x="396" y="882.5" width="34" height="98" style="fill: #e8a23d"/>
          <path d="M395.5,882h35v99h-35Zm34,1h-33v97h33Z" style="fill: #a97c50"/>
        </g>
        <g>
          <rect x="328" y="882.5" width="34" height="98" style="fill: #f9b546"/>
          <path d="M327.5,882h35v99h-35Zm34,1h-33v97h33Z" style="fill: #a97c50"/>
        </g>
        <g>
          <rect x="260" y="882.5" width="34" height="98" style="fill: #e8a23d"/>
          <path d="M259.5,882h35v99h-35Zm34,1h-33v97h33Z" style="fill: #a97c50"/>
        </g>
        <g>
          <rect x="192" y="882.5" width="34" height="98" style="fill: #f9b546"/>
          <path d="M191.5,882h35v99h-35Zm34,1h-33v97h33Z" style="fill: #a97c50"/>
        </g>
        <g>
          <rect x="90" y="882.5" width="34" height="98" style="fill: #d89335"/>
          <path d="M89.5,882h35v99h-35Zm34,1h-33v97h33Z" style="fill: #a97c50"/>
        </g>
        <g>
          <rect x="158" y="882.5" width="34" height="98" style="fill: #d89335"/>
          <path d="M157.5,882h35v99h-35Zm34,1h-33v97h33Z" style="fill: #a97c50"/>
        </g>
        <g>
          <rect x="396" y="0.5" width="34" height="98" style="fill: #d89335"/>
          <path d="M395.5,0h35V99h-35Zm34,1h-33V98h33Z" style="fill: #a97c50"/>
        </g>
        <g>
          <rect x="328" y="0.5" width="34" height="98" style="fill: #d89335"/>
          <path d="M327.5,0h35V99h-35Zm34,1h-33V98h33Z" style="fill: #a97c50"/>
        </g>
        <g>
          <rect x="260" y="0.5" width="34" height="98" style="fill: #d89335"/>
          <path d="M259.5,0h35V99h-35Zm34,1h-33V98h33Z" style="fill: #a97c50"/>
        </g>
        <g>
          <rect x="192" y="0.5" width="34" height="98" style="fill: #d89335"/>
          <path d="M191.5,0h35V99h-35Zm34,1h-33V98h33Z" style="fill: #a97c50"/>
        </g>
        <g>
          <rect x="90" y="0.5" width="34" height="98" style="fill: #e8a23d"/>
          <path d="M89.5,0h35V99h-35Zm34,1h-33V98h33Z" style="fill: #a97c50"/>
        </g>
        <g>
          <rect x="158" y="0.5" width="34" height="98" style="fill: #f9b546"/>
          <path d="M157.5,0h35V99h-35Zm34,1h-33V98h33Z" style="fill: #a97c50"/>
        </g>
      </g>
      <g>
        <polygon points="268.8 257.6 260 301.9 251.2 257.6 268.8 257.6" style="fill: #c42128"/>
        <polygon points="336.8 189.6 328 233.9 319.2 189.6 336.8 189.6" style="fill: #c42128"/>
        <polygon points="200.3 189.6 191.5 233.9 182.7 189.6 200.3 189.6" style="fill: #c42128"/>
        <polygon points="404.3 106.4 395.5 150.6 386.7 106.4 404.3 106.4" style="fill: #c42128"/>
        <polygon points="132.3 106.4 123.5 150.6 114.7 106.4 132.3 106.4" style="fill: #c42128"/>
      </g>
      <g>
        <rect x="464.5" y="0.5" width="13.8" height="980.5" style="fill: #455a66"/>
        <rect x="506.7" y="0.5" width="13.8" height="980.5" style="fill: #455a66"/>
        <rect x="478.3" y="0.5" width="28.4" height="980.5" style="fill: #364750"/>
      </g>
      <g>
        <rect y="0.5" width="13.8" height="980.5" style="fill: #455a66"/>
        <rect x="42.2" y="0.5" width="13.8" height="980.5" style="fill: #455a66"/>
        <rect x="13.8" y="0.5" width="28.4" height="980.5" style="fill: #364750"/>
      </g>
    </g>
  </g>
</svg>
